<?xml version="1.0"?>
<svg version="1.1" xmlns="http://www.w3.org/2000/svg" width="800" height="188" style=""><path fill="#258ed9" d="M67.2,106l-2.3-9.6s-4.7-1.6-11.2-1.6c-10.5,0-16.5,7.8-16.5,24.5c0,16.2,6.5,23,17,23c10,0,19-7,19-7l5.5,9s-10.5,10.9-26.2,10.9c-20.3,0-32-12.2-32-35.4c0-23.5,13.2-37.5,33.7-37.5c12.1,0,23.3,4.7,23.3,4.7l-0.5,19l-9.8,0z M113.151,100l0.9,6.9s7.2-7.9,13.9-7.9c5.5,0,9.3,1.8,9.3,1.8l-0.8,19.2l-9,0l-1.5-8.5c-5.8,0-10.8,5.6-10.8,5.6l0,26.4l10,2.5l0,8l-33,0l0-8l8-2.5l0-32.5l-8-2.5l0-8z M145.202,108.5l0-8l26.7-0.5l0,8.5l-5.6,1l8.9,28l8.5-27.7l-5.8-1.3l0-8l26.9-0.5l0,8.5l-6.2,1.3l-14.7,41c-4.8,13.2-11.3,27.2-27.2,27.2c-3.4,0-9.7-0.8-9.7-0.8l1.4-10.7l6.5,0c8,0,11.7-8.5,13.4-12.4l-17.8-44z M213.753,100.5l21.3-0.5l0.9,5.6s6.8-6.6,14.8-6.6c13.9,0,20.8,10.3,20.8,26.5c0,18.5-8.8,29.5-26.3,29.5c-2.9,0-5.9-0.4-8.5-1l0,12.7l9.5,2.3l0,8l-32.3,0l0-8l7.8-2.3l0-55.7l-8-2.5l0-8z M236.753,116.5l0,25.5c1.6,0.7,4,1.5,7.8,1.5c8.6,0,11.5-6,11.5-16.2c0-10.1-2.7-16.3-10-16.3c-6.5,0-9.3,5.5-9.3,5.5z M321.504,141.2l3.6,7.6c-4.9,3.6-10.5,6.2-17,6.2c-11.5,0-14.8-8-14.8-19.5l0-23l-9.3,0l0-9.7l9.3-1.3l0-13.8l15-2.7l0,16.5l14,0l0,11l-14,0l0,22c0,6.4,1.1,9,5.3,9c2.7,0,6.6-1.6,7.9-2.3z M363.555,99c16.2,0,25.2,9.8,25.2,27c0,18-10.5,29-26.7,29c-16.3,0-25.5-8.5-25.5-27.5c0-18,10.7-28.5,27-28.5z M363.055,111c-7.3,0-11,4-11,16c0,11,3.2,16,10.5,16c7.2,0,10.7-4.5,10.7-16.5c0-10.2-3-15.5-10.2-15.5z M422.206,145l14.8,0c12.7,0,20,5.5,20,15.5c0,11-8.8,19-28,19c-15.7,0-25.8-3.5-25.8-14.5c0-8.6,10.5-12,10.5-12s-6-0.9-6-6.6c0-2.9,4-9.4,5.2-11.3c-2.4-1.6-7.7-5.9-7.7-15.6c0-13.7,10.3-20.5,24-20.5c5.8,0,9.9,1.5,11.8,2.4l17.2-0.4l0,8l-8.2,1.4c0.2,0.9,1.7,3.6,1.7,7.9c0,14.5-10.2,20.5-24,20.5c-2.7,0-4.7-0.5-5.1-0.5z M428.706,109.3c-6,0-8.5,3.2-8.5,9.5c0,6,2.3,10,8,10c6.3,0,8.5-3.3,8.5-10c0-6.3-2.5-9.5-8-9.5z M433.006,156l-10.5,0s-4.8,2.2-4.8,6.5c0,5,4.3,6,12.5,6c9,0,12.8-2,12.8-6.8c0-4.5-3.3-5.7-10-5.7z M491.657,100l0.9,6.9s7.2-7.9,13.9-7.9c5.5,0,9.3,1.8,9.3,1.8l-0.8,19.2l-9,0l-1.5-8.5c-5.8,0-10.8,5.6-10.8,5.6l0,26.4l10,2.5l0,8l-33,0l0-8l8-2.5l0-32.5l-8-2.5l0-8z M560.808,154l-1.8-6.5s-7.7,7.5-16.2,7.5c-9.7,0-15.6-5.7-15.6-15.7c0-11.8,8.9-16.5,24.1-16.5l7,0l0-5.5c0-5.1-2.7-7.3-7.7-7.3c-5.1,0-8.8,1.5-8.8,1.5l-1.5,6.3l-9,0l-0.7-14.8s12.1-4,21.7-4c15.2,0,21,5.3,21,19.8l0,24.7l7.5,1.8l0,8z M558.308,131.3l-5.7,0c-7.8,0-10.9,2-10.9,6.5c0,3.8,2.1,6,5.9,6c5.3,0,10.7-5.8,10.7-5.8l0-6.7z M592.259,100.5l21.3-0.5l0.9,5.6s6.8-6.6,14.8-6.6c13.9,0,20.8,10.3,20.8,26.5c0,18.5-8.8,29.5-26.3,29.5c-2.9,0-5.9-0.4-8.5-1l0,12.7l9.5,2.3l0,8l-32.3,0l0-8l7.8-2.3l0-55.7l-8-2.5l0-8z M615.259,116.5l0,25.5c1.6,0.7,4,1.5,7.8,1.5c8.6,0,11.5-6,11.5-16.2c0-10.1-2.7-16.3-10-16.3c-6.5,0-9.3,5.5-9.3,5.5z M686.01,76.5l0,29.3c2.9-2.4,9.4-6.8,16.8-6.8c10.2,0,15.7,6.8,15.7,18l0,26.5l7,2.5l0,8l-27.2,0l0-8l5.2-2.4l0-24.2c0-5-2-8-6.6-8c-5.6,0-10.9,5.3-10.9,5.3l0,26.8l5.3,2.5l0,8l-28.3,0l0-8l8-2.5l0-56.2l-8-2l0-8z M735.461,108.5l0-8l26.7-0.5l0,8.5l-5.6,1l8.9,28l8.5-27.7l-5.8-1.3l0-8l26.9-0.5l0,8.5l-6.2,1.3l-14.7,41c-4.8,13.2-11.3,27.2-27.2,27.2c-3.4,0-9.7-0.8-9.7-0.8l1.4-10.7l6.5,0c8,0,11.7-8.5,13.4-12.4l-17.8-44z"/><path fill="#2984c4" d=""/></svg>
